<?xml version="1.0" encoding="utf-8"?>
<!-- Generator: Adobe Illustrator 24.3.0, SVG Export Plug-In . SVG Version: 6.00 Build 0)  -->
<svg version="1.1" id="ThemeForest" xmlns="http://www.w3.org/2000/svg" xmlns:xlink="http://www.w3.org/1999/xlink" x="0px"
	 y="0px" viewBox="0 0 66 70.91" style="enable-background:new 0 0 66 70.91;" xml:space="preserve">
<style type="text/css">
	.st0{clip-path:url(#SVGID_2_);}
	.st1{fill:#FFFFFF;}
	.st2{fill:url(#SVGID_3_);}
	.st3{opacity:0.42;fill:url(#SVGID_4_);}
	.st4{opacity:0.17;fill:#FFFFFF;}
</style>
<g>
	<defs>
		<path id="SVGID_1_" d="M70.96,32.22c-2-16-21-11.33-10.33-6.67c10.06,4.4-14.1,9.39-16.9,9.95V5.43c0-3-1.93-5.43-4.31-5.43
			h-53.11c-2.38,0-4.31,2.43-4.31,5.43v67.02c0,3,1.93,5.43,4.31,5.43h53.11c0.81,0,1.57-0.29,2.21-0.78
			c6.77,1.34,17.44,3.22,20.99,2.44c5.33-1.17,9.67-10,9.67-10.67S72.96,48.22,70.96,32.22z"/>
	</defs>
	<clipPath id="SVGID_2_">
		<use xlink:href="#SVGID_1_"  style="overflow:visible;"/>
	</clipPath>
	<g class="st0">
		<path class="st1" d="M59.46,38.72c0,0,3.67,0.33,4.17,1.67c0.5,1.33-3.17,2.5-3.17,2.5L59.46,38.72z"/>
		<path d="M65.5,39.68c-0.82-2.18-4.02-2.79-5.86-2.96l-2.13,2.46l1,4.17l2.55,1.44c1.28-0.41,3.54-1.33,4.32-2.92
			C65.73,41.17,65.77,40.39,65.5,39.68z M60.46,42.88l-1-4.17c0,0,3.67,0.33,4.17,1.67C64.13,41.72,60.46,42.88,60.46,42.88z"/>
		<path class="st1" d="M58.27,47.52c0,0,2.99,0.27,3.4,1.36c0.41,1.09-2.58,2.04-2.58,2.04L58.27,47.52z"/>
		<path d="M63.2,48.3c-0.67-1.78-3.28-2.27-4.78-2.41l-1.74,2.01l0.82,3.4l2.08,1.18c1.04-0.33,2.89-1.08,3.52-2.38
			C63.39,49.52,63.42,48.88,63.2,48.3z M59.09,50.92l-0.82-3.4c0,0,2.99,0.27,3.4,1.36C62.08,49.96,59.09,50.92,59.09,50.92z"/>
		<path class="st1" d="M56.67,54.23c0,0,2.46,0.22,2.8,1.12c0.33,0.9-2.13,1.68-2.13,1.68L56.67,54.23z"/>
		<path d="M60.73,54.88c-0.55-1.46-2.7-1.87-3.93-1.98l-1.43,1.65l0.67,2.8l1.71,0.97c0.86-0.27,2.38-0.89,2.9-1.96
			C60.88,55.87,60.9,55.35,60.73,54.88z M57.34,57.03l-0.67-2.8c0,0,2.46,0.22,2.8,1.12C59.8,56.24,57.34,57.03,57.34,57.03z"/>
		<path d="M59.04,59.75c-0.55-1.46-2.7-1.87-3.93-1.98l-1.43,1.65l0.67,2.8l1.71,0.97c0.86-0.27,2.38-0.89,2.9-1.96
			C59.19,60.75,59.22,60.23,59.04,59.75z M55.66,61.9l-0.67-2.8c0,0,2.46,0.22,2.8,1.12S55.66,61.9,55.66,61.9z"/>
		<linearGradient id="SVGID_3_" gradientUnits="userSpaceOnUse" x1="5.607" y1="38.4249" x2="59.8291" y2="38.4249">
			<stop  offset="0" style="stop-color:#B68450"/>
			<stop  offset="0.1274" style="stop-color:#AA7946"/>
			<stop  offset="0.4499" style="stop-color:#936432"/>
			<stop  offset="0.7491" style="stop-color:#845726"/>
			<stop  offset="1" style="stop-color:#7F5222"/>
		</linearGradient>
		<path class="st2" d="M38.42,37.76c0,0,16.08-3.04,19.83,0.96s-0.38,5.88-0.38,5.88s2.5,4.38-1.25,7.88c0,0,1.5,3.25-1,5.5
			c0,0,0.75,3.5-10.75,5.5c-11.5,2-43.75,9-38.75-16.25s32-36.25,37.5-36.25v25.75l2.42,0.58L38.42,37.76z"/>
		<radialGradient id="SVGID_4_" cx="40.6079" cy="13.4784" r="21.2452" gradientUnits="userSpaceOnUse">
			<stop  offset="0" style="stop-color:#121212"/>
			<stop  offset="1" style="stop-color:#000000"/>
		</radialGradient>
		<path class="st3" d="M36.63,10.97l5.25,25.25l3.25-0.5C45.13,35.72,52.88-2.28,36.63,10.97z"/>
		<path d="M60.05,36.73c-1.53-1.63-3.89-2.36-7.67-2.36c-1.36,0-2.95,0.1-4.75,0.29v-23.7l-4-4c-7.83,0-36.04,12.3-41.42,39.47
			c-1.37,6.92-0.38,12.49,2.95,16.54c3.76,4.58,10.34,6.9,19.56,6.9c7.02,0,14.28-1.3,19.09-2.17l1.76-0.31
			c6.84-1.19,10.04-2.74,11.94-5.57c0.39-0.57,0.46-2.24,0.63-2.75c1.61-2.06,1.75-4.32,1.5-6.25c1.18-1.79,1.47-3.54,1.38-4.75
			c-0.07-0.83-0.63-1.63-0.13-2.13c0.45-0.84,1.26-1.72,1.38-2.88C62.43,41.41,62.5,39.34,60.05,36.73z M57.88,44.59
			c0,0,2.5,4.38-1.25,7.88c0,0,1.5,3.25-1,5.5c0,0,0.75,3.5-10.75,5.5c-11.5,2-43.75,9-38.75-16.25s32-36.25,37.5-36.25v25.75
			l-5.21,1.04c7.44-1.39,17.45-1.04,19.21,0.83C61.38,42.59,57.88,44.59,57.88,44.59z"/>
		<path d="M44.13,36.97c0,0-12.13,1.38-22.5,4.38c0,0,7.13-4,24.88-6.5L44.13,36.97z"/>
		<path d="M36.88,36.97c0,0-9-1.5-13.13-0.25l9,1.5L36.88,36.97z"/>
		<polygon points="56.5,58.09 52.13,58.22 58.13,56.47 		"/>
		<polygon points="57.13,52.59 51.5,53.34 58,53.97 		"/>
		<polygon points="58.75,45.72 52,44.97 60.38,43.72 		"/>
		<path class="st4" d="M55.64,58.21c-0.29-0.29-0.53-0.45-0.53-0.45s-9.98,4.95-33.23,5.95c-18,0.77-15.32-16.73-13.19-24.68
			c-1.1,2.54-1.98,5.26-2.56,8.18c-5,25.25,27.25,18.25,38.75,16.25C54.56,61.78,55.56,59.04,55.64,58.21z"/>
	</g>
</g>
</svg>
