<?xml version="1.0" encoding="utf-8"?>
<!-- Generator: Adobe Illustrator 24.3.0, SVG Export Plug-In . SVG Version: 6.00 Build 0)  -->
<svg version="1.1" id="GraphicRiver" xmlns="http://www.w3.org/2000/svg" xmlns:xlink="http://www.w3.org/1999/xlink" x="0px"
	 y="0px" viewBox="0 0 92.3 101.72" style="enable-background:new 0 0 92.3 101.72;" xml:space="preserve">
<style type="text/css">
	.st0{clip-path:url(#SVGID_2_);}
	.st1{fill:url(#SVGID_3_);}
	.st2{fill:url(#SVGID_4_);stroke:#000000;stroke-width:3;}
	.st3{opacity:0.33;fill:url(#SVGID_5_);}
	.st4{fill:#FFFFFF;}
</style>
<g>
	<defs>
		<path id="SVGID_1_" d="M-6.92,94.63c0,3.92,3.1,7.1,6.92,7.1h85.38c3.82,0,6.92-3.18,6.92-7.1V7.1c0-3.92-3.1-7.1-6.92-7.1H0
			c-3.82,0-6.92,3.18-6.92,7.1V94.63z"/>
	</defs>
	<clipPath id="SVGID_2_">
		<use xlink:href="#SVGID_1_"  style="overflow:visible;"/>
	</clipPath>
	<g class="st0">
		
			<linearGradient id="SVGID_3_" gradientUnits="userSpaceOnUse" x1="-1973.9272" y1="246.5267" x2="-1956.4266" y2="246.5267" gradientTransform="matrix(-0.9921 0.1251 0.1251 0.9921 -1913.1346 13.4915)">
			<stop  offset="0" style="stop-color:#005E9C"/>
			<stop  offset="0.0693" style="stop-color:#0D76B2"/>
			<stop  offset="0.1555" style="stop-color:#188CC6"/>
			<stop  offset="0.2498" style="stop-color:#219CD5"/>
			<stop  offset="0.357" style="stop-color:#25A5DD"/>
			<stop  offset="0.5055" style="stop-color:#27A8E0"/>
			<stop  offset="0.5821" style="stop-color:#2BA9E1"/>
			<stop  offset="0.6503" style="stop-color:#35AEE2"/>
			<stop  offset="0.7154" style="stop-color:#48B5E5"/>
			<stop  offset="0.7785" style="stop-color:#61BFE8"/>
			<stop  offset="0.8403" style="stop-color:#82CDED"/>
			<stop  offset="0.9009" style="stop-color:#ABDDF3"/>
			<stop  offset="0.9597" style="stop-color:#DAF0FA"/>
			<stop  offset="1" style="stop-color:#FFFFFF"/>
		</linearGradient>
		<path class="st1" d="M74.79,1.21L58.7,5.51l0.44,3.47l-0.52,3.85l0.5,3.97l0.44,3.47l0.87,2.91
			C60.42,23.18,75.33,17.52,74.79,1.21z"/>
		<path d="M55.59,12.81l0.05,0.39l0.5,3.97l0.44,3.47l0.03,0.25l0.07,0.24l0.87,2.91l0.92,3.09l3.02-1.14
			c5.85-2.22,16.78-10.28,16.3-24.88l-0.13-3.77l-3.65,0.97l-16.09,4.3l-2.53,0.68l0.33,2.6l0.39,3.09l-0.47,3.45L55.59,12.81z
			 M58.61,12.83l0.52-3.85L58.7,5.51l16.09-4.3c0.54,16.31-14.36,21.97-14.36,21.97l-0.87-2.91l-0.44-3.47L58.61,12.83z"/>
		<linearGradient id="SVGID_4_" gradientUnits="userSpaceOnUse" x1="5.3868" y1="42.7257" x2="112.7251" y2="42.7257">
			<stop  offset="0" style="stop-color:#27A8E0"/>
			<stop  offset="0.2516" style="stop-color:#25A4DD"/>
			<stop  offset="0.4757" style="stop-color:#1F9AD3"/>
			<stop  offset="0.6893" style="stop-color:#1687C2"/>
			<stop  offset="0.8953" style="stop-color:#086EAB"/>
			<stop  offset="1" style="stop-color:#005E9C"/>
		</linearGradient>
		<path class="st2" d="M83.73-5.27c0,0-20.67,8-31.67,38S28.8,66.82,5.39,55.56c0,0-1,18.83,26,16.5c0,0-1.33,14.67,6,23
			c0,0,5.67-6.33,10.33-29c0,0,33-12.33,41.33-35.67c8.33-23.33,23.67-22,23.67-22S99.39-20.27,83.73-5.27z"/>
		<radialGradient id="SVGID_5_" cx="82.5746" cy="-0.1285" r="24.3279" gradientUnits="userSpaceOnUse">
			<stop  offset="0" style="stop-color:#121212"/>
			<stop  offset="1" style="stop-color:#000000"/>
		</radialGradient>
		<path class="st3" d="M80.81-3.82c-1.9,1.06-4.59,2.78-7.66,5.34c4.72-0.41,18.48,0.17,19.58,20.71c0,0.03,0,0.05,0,0.07
			c1.52-2.67,3.14-4.84,4.78-6.58C98.44,4.41,95.77-10.19,80.81-3.82z"/>
		<path d="M82.73,2.06c0,0,0.17,33.67,7.5,17.67C90.23,19.73,85.23,25.73,82.73,2.06z"/>
		<path class="st4" d="M41.14,59.56c0,0,4,14.75-3.25,29c0,0-5-9.75-3.25-20.25c0,0-17.25,2.5-22.5-5.25
			C12.14,63.06,32.64,71.81,41.14,59.56z"/>
		<path class="st4" d="M72.39,5.9c0,0-14.17,11-22.5,41.83C49.89,47.73,64.56,11.4,72.39,5.9z"/>
	</g>
</g>
</svg>
