<?xml version="1.0" encoding="utf-8"?>
<!-- Generator: Adobe Illustrator 24.3.0, SVG Export Plug-In . SVG Version: 6.00 Build 0)  -->
<svg version="1.1" id="VideoHive" xmlns="http://www.w3.org/2000/svg" xmlns:xlink="http://www.w3.org/1999/xlink" x="0px" y="0px"
	 viewBox="0 0 75.8 72.05" style="enable-background:new 0 0 75.8 72.05;" xml:space="preserve">
<style type="text/css">
	.st0{fill:url(#SVGID_1_);}
	.st1{fill:#231F20;}
	.st2{opacity:0.5;}
	.st3{fill:#FFFFFF;}
	.st4{fill:url(#SVGID_2_);}
	.st5{opacity:0.4;}
</style>
<g>
	<g>
		<path d="M30.9,66.05L19.65,59.7c-1.3-1.27-1.32-3.34-0.05-4.64l0,0c1.27-1.29,3.34-1.32,4.64-0.05L30.9,66.05z"/>
		<g>
			
				<linearGradient id="SVGID_1_" gradientUnits="userSpaceOnUse" x1="-1409.452" y1="-2522.9656" x2="-1383.3151" y2="-2522.9656" gradientTransform="matrix(-0.7071 -0.7071 0.7071 -0.7071 811.1984 -2721.3352)">
				<stop  offset="0" style="stop-color:#FBED1F"/>
				<stop  offset="0.6539" style="stop-color:#F8B020"/>
				<stop  offset="1" style="stop-color:#F79420"/>
			</linearGradient>
			<path class="st0" d="M5.35,40.8c3.4-3.4,8.92-3.4,12.32,0l6.16,6.16c3.4,3.4,3.4,8.92,0,12.32l0,0c-3.4,3.4-8.92,3.4-12.32,0
				l-6.16-6.16C1.95,49.71,1.95,44.2,5.35,40.8L5.35,40.8z"/>
			<path d="M6.3,41.74c1.39-1.39,3.25-2.16,5.22-2.16c1.97,0,3.82,0.77,5.22,2.16l6.16,6.16c1.39,1.39,2.16,3.25,2.16,5.22
				c0,1.97-0.77,3.82-2.16,5.21c-1.39,1.39-3.25,2.16-5.22,2.16s-3.82-0.77-5.22-2.16L6.3,52.17c-1.39-1.39-2.16-3.25-2.16-5.21
				C4.13,44.99,4.9,43.13,6.3,41.74z M4.41,39.85c-1.9,1.9-2.94,4.42-2.94,7.1c0,2.68,1.05,5.21,2.94,7.1l6.16,6.16
				c1.9,1.9,4.42,2.94,7.11,2.94s5.21-1.04,7.1-2.94c1.9-1.9,2.94-4.42,2.94-7.1c0-2.68-1.05-5.21-2.94-7.1l-6.16-6.16
				c-1.9-1.9-4.42-2.94-7.1-2.94C8.83,36.91,6.3,37.95,4.41,39.85z"/>
		</g>
		<rect x="10.34" y="52.32" transform="matrix(0.7069 -0.7073 0.7073 0.7069 -32.8141 29.0901)" width="16.7" height="3.63"/>
		<rect x="6.07" y="48.05" transform="matrix(0.7072 -0.707 0.707 0.7072 -31.0345 24.7978)" width="16.7" height="3.63"/>
		<rect x="1.8" y="43.78" transform="matrix(0.7071 -0.7071 0.7071 0.7071 -29.2671 20.5299)" width="16.7" height="3.63"/>
	</g>
	<line class="st1" x1="1.6" y1="41.58" x2="1.6" y2="41.58"/>
	<g class="st2">
		<path class="st3" d="M27.63,51.98c-6.24,1.93-12.24,0.47-13.38-3.24c-1.15-3.71,2.99-8.29,9.23-10.21
			c6.25-1.93,12.24-0.47,13.38,3.24C38.02,45.49,33.88,50.06,27.63,51.98z"/>
		<path class="st1" d="M27.4,51.21c-3.77,1.16-7.65,1.07-10.12-0.24c-1.16-0.61-1.94-1.47-2.24-2.47c-0.31-1-0.15-2.14,0.46-3.3
			c1.31-2.47,4.46-4.73,8.23-5.89c5.71-1.76,11.37-0.52,12.37,2.7c0.31,1,0.15,2.14-0.47,3.3C34.32,47.79,31.17,50.05,27.4,51.21z
			 M37.65,41.53c-1.3-4.21-7.62-5.86-14.4-3.78c-4.23,1.3-7.67,3.8-9.19,6.69c-0.82,1.55-1.02,3.12-0.58,4.54
			c0.44,1.42,1.49,2.61,3.04,3.42c2.88,1.53,7.13,1.66,11.36,0.35c4.23-1.3,7.66-3.8,9.19-6.69C37.88,44.52,38.08,42.95,37.65,41.53
			z"/>
	</g>
	<g>
		<path d="M27.4,51.21c-3.77,1.16-7.65,1.07-10.12-0.24c-1.16-0.61-1.94-1.47-2.24-2.47c-0.31-1-0.15-2.14,0.46-3.3
			c1.31-2.47,4.46-4.73,8.23-5.89c5.71-1.76,11.37-0.52,12.37,2.7c0.31,1,0.15,2.14-0.47,3.3C34.32,47.79,31.17,50.05,27.4,51.21z
			 M37.65,41.53c-1.3-4.21-7.62-5.86-14.4-3.78c-4.23,1.3-7.67,3.8-9.19,6.69c-0.82,1.55-1.02,3.12-0.58,4.54
			c0.44,1.42,1.49,2.61,3.04,3.42c2.88,1.53,7.13,1.66,11.36,0.35c4.23-1.3,7.66-3.8,9.19-6.69C37.88,44.52,38.08,42.95,37.65,41.53
			z"/>
	</g>
	<g>
		<path d="M14.62,63.01c-1.78,3.52-4.53,6.25-7.19,7.13c-1.25,0.41-2.4,0.38-3.34-0.09c-0.93-0.47-1.64-1.38-2.06-2.63
			c-0.87-2.66-0.31-6.5,1.46-10.02c2.69-5.33,7.51-8.56,10.52-7.03c0.93,0.47,1.65,1.38,2.06,2.63
			C16.95,55.65,16.39,59.49,14.62,63.01z M14.75,48.92c-3.93-1.98-9.51,1.42-12.7,7.75c-2,3.95-2.58,8.16-1.56,11.26
			c0.55,1.67,1.54,2.9,2.87,3.57c1.33,0.67,2.91,0.74,4.57,0.19c3.1-1.02,6.14-3.99,8.13-7.94c1.99-3.95,2.57-8.16,1.56-11.26
			C17.07,50.82,16.08,49.59,14.75,48.92z"/>
	</g>
	<g>
		<path d="M39.47,33.56l6.9-12.22c1.38-1.41,3.63-1.43,5.04-0.06l0,0c1.41,1.38,1.43,3.63,0.05,5.04L39.47,33.56z"/>
		<g>
			
				<linearGradient id="SVGID_2_" gradientUnits="userSpaceOnUse" x1="-109.4408" y1="-2384.2019" x2="-81.0529" y2="-2384.2019" gradientTransform="matrix(0.7071 -0.7071 0.7071 0.7071 1810.084 1634.368)">
				<stop  offset="0" style="stop-color:#FBED1F"/>
				<stop  offset="0.6539" style="stop-color:#F8B020"/>
				<stop  offset="1" style="stop-color:#F79420"/>
			</linearGradient>
			<path class="st4" d="M66.9,5.81c3.7,3.7,3.7,9.69,0,13.38l-6.69,6.69c-3.69,3.7-9.69,3.7-13.38,0l0,0
				c-3.7-3.69-3.69-9.69,0-13.38l6.69-6.69C57.21,2.12,63.21,2.12,66.9,5.81L66.9,5.81z"/>
			<path d="M65.88,6.84c1.51,1.51,2.35,3.53,2.35,5.67c0,2.14-0.83,4.15-2.35,5.67l-6.69,6.69c-1.51,1.51-3.53,2.35-5.67,2.35
				c-2.14,0-4.15-0.83-5.67-2.35c-1.51-1.52-2.34-3.53-2.34-5.67c0-2.14,0.83-4.15,2.34-5.67l6.69-6.69
				c1.51-1.51,3.53-2.35,5.67-2.35C62.35,4.49,64.36,5.32,65.88,6.84z M67.93,4.79c-2.06-2.06-4.8-3.2-7.72-3.2
				c-2.91,0-5.65,1.14-7.72,3.2l-6.69,6.69c-2.06,2.06-3.19,4.8-3.19,7.72c0,2.92,1.13,5.66,3.2,7.72c2.06,2.06,4.8,3.2,7.72,3.2
				c2.91,0,5.66-1.13,7.72-3.2l6.69-6.69c2.06-2.06,3.2-4.8,3.2-7.72C71.13,9.59,69.99,6.85,67.93,4.79z"/>
		</g>
		<rect x="50.44" y="11.24" transform="matrix(0.707 -0.7072 0.7072 0.707 0.9958 43.0106)" width="3.94" height="18.14"/>
		<rect x="55.08" y="6.59" transform="matrix(0.7073 -0.7069 0.7069 0.7073 5.6275 44.9157)" width="3.94" height="18.14"/>
		<rect x="59.72" y="1.95" transform="matrix(0.707 -0.7072 0.7072 0.707 10.2782 46.855)" width="3.94" height="18.14"/>
	</g>
	<line class="st1" x1="66.05" y1="1.73" x2="66.05" y2="1.73"/>
	<g class="st2">
		<path class="st3" d="M54.75,30.01c-2.09-6.78-0.51-13.29,3.52-14.53c4.04-1.24,9,3.25,11.09,10.03
			c2.09,6.78,0.52,13.29-3.52,14.53C61.81,41.29,56.84,36.8,54.75,30.01z"/>
		<path class="st1" d="M55.59,29.75c-1.26-4.09-1.17-8.31,0.26-10.99c0.67-1.26,1.59-2.1,2.68-2.44c1.09-0.34,2.33-0.16,3.59,0.5
			c2.69,1.42,5.14,4.85,6.4,8.94c1.91,6.2,0.56,12.35-2.94,13.43c-1.09,0.34-2.33,0.16-3.59-0.51
			C59.31,37.28,56.86,33.85,55.59,29.75z M66.1,40.89c4.57-1.41,6.37-8.28,4.1-15.64c-1.42-4.59-4.13-8.32-7.26-9.98
			c-1.68-0.89-3.39-1.11-4.93-0.63c-1.54,0.48-2.83,1.61-3.72,3.3c-1.66,3.13-1.8,7.74-0.38,12.34c1.42,4.59,4.13,8.32,7.26,9.98
			C62.85,41.14,64.56,41.36,66.1,40.89z"/>
	</g>
	<g>
		<path d="M55.59,29.75c-1.26-4.09-1.17-8.31,0.26-10.99c0.67-1.26,1.59-2.1,2.68-2.44c1.09-0.34,2.33-0.16,3.59,0.5
			c2.69,1.42,5.14,4.85,6.4,8.94c1.91,6.2,0.56,12.35-2.94,13.43c-1.09,0.34-2.33,0.16-3.59-0.51
			C59.31,37.28,56.86,33.85,55.59,29.75z M66.1,40.89c4.57-1.41,6.37-8.28,4.1-15.64c-1.42-4.59-4.13-8.32-7.26-9.98
			c-1.68-0.89-3.39-1.11-4.93-0.63c-1.54,0.48-2.83,1.61-3.72,3.3c-1.66,3.13-1.8,7.74-0.38,12.34c1.42,4.59,4.13,8.32,7.26,9.98
			C62.85,41.14,64.56,41.36,66.1,40.89z"/>
	</g>
	<g>
		<path d="M42.77,15.88c-3.82-1.93-6.79-4.92-7.74-7.81c-0.44-1.35-0.41-2.61,0.1-3.62c0.51-1.02,1.5-1.79,2.85-2.23
			c2.89-0.95,7.05-0.34,10.88,1.59c5.79,2.92,9.29,8.16,7.64,11.43c-0.51,1.02-1.5,1.79-2.85,2.23
			C50.77,18.41,46.6,17.81,42.77,15.88z M58.08,16.02c2.16-4.27-1.54-10.33-8.42-13.8c-4.29-2.17-8.86-2.8-12.23-1.69
			c-1.81,0.6-3.15,1.67-3.87,3.11c-0.73,1.44-0.8,3.16-0.21,4.97c1.11,3.37,4.33,6.67,8.62,8.83c4.29,2.17,8.86,2.8,12.23,1.69
			C56.02,18.54,57.35,17.47,58.08,16.02z"/>
	</g>
	<g class="st5">
		<path class="st3" d="M15.34,63.38c-2.94,5.83-8.14,9.14-11.61,7.39c-3.47-1.75-3.9-7.9-0.95-13.73c2.94-5.84,8.14-9.15,11.61-7.39
			C17.86,51.39,18.29,57.54,15.34,63.38z"/>
		<path class="st1" d="M14.62,63.01c-1.78,3.52-4.53,6.25-7.19,7.13c-1.25,0.41-2.4,0.38-3.34-0.09c-0.93-0.47-1.64-1.38-2.06-2.63
			c-0.87-2.66-0.31-6.5,1.46-10.02c2.69-5.33,7.51-8.56,10.52-7.03c0.93,0.47,1.65,1.38,2.06,2.63
			C16.95,55.65,16.39,59.49,14.62,63.01z M14.75,48.92c-3.93-1.98-9.51,1.42-12.7,7.75c-2,3.95-2.58,8.16-1.56,11.26
			c0.55,1.67,1.54,2.9,2.87,3.57c1.33,0.67,2.91,0.74,4.57,0.19c3.1-1.02,6.14-3.99,8.13-7.94c1.99-3.95,2.57-8.16,1.56-11.26
			C17.07,50.82,16.08,49.59,14.75,48.92z"/>
	</g>
	<g class="st5">
		<path class="st3" d="M42.38,16.66c-6.33-3.2-9.93-8.85-8.03-12.61c1.9-3.77,8.58-4.23,14.92-1.04c6.34,3.2,9.93,8.85,8.03,12.61
			C55.4,19.4,48.71,19.86,42.38,16.66z"/>
		<path class="st1" d="M42.77,15.88c-3.82-1.93-6.79-4.92-7.74-7.81c-0.44-1.35-0.41-2.61,0.1-3.62c0.51-1.02,1.5-1.79,2.85-2.23
			c2.89-0.95,7.05-0.34,10.88,1.59c5.79,2.92,9.29,8.16,7.64,11.43c-0.51,1.02-1.5,1.79-2.85,2.23
			C50.77,18.41,46.6,17.81,42.77,15.88z M58.08,16.02c2.16-4.27-1.54-10.33-8.42-13.8c-4.29-2.17-8.86-2.8-12.23-1.69
			c-1.81,0.6-3.15,1.67-3.87,3.11c-0.73,1.44-0.8,3.16-0.21,4.97c1.11,3.37,4.33,6.67,8.62,8.83c4.29,2.17,8.86,2.8,12.23,1.69
			C56.02,18.54,57.35,17.47,58.08,16.02z"/>
	</g>
</g>
</svg>
